<?xml version="1.0" encoding="utf-8"?>
<!-- Generator: Adobe Illustrator 15.0.2, SVG Export Plug-In . SVG Version: 6.00 Build 0)  -->
<!DOCTYPE svg PUBLIC "-//W3C//DTD SVG 1.1//EN" "http://www.w3.org/Graphics/SVG/1.1/DTD/svg11.dtd">
<svg version="1.1" id="Слой_1" xmlns="http://www.w3.org/2000/svg" xmlns:xlink="http://www.w3.org/1999/xlink" x="0px" y="0px"
	 width="93.333px" height="304px" viewBox="0 0 93.333 304" enable-background="new 0 0 93.333 304" xml:space="preserve">
<path fill="#231F20" d="M66.986,299.681h-37.77c-1.381,0-2.5-1.118-2.5-2.5V14.873c0-1.381,1.119-2.5,2.5-2.5h37.77
	c1.382,0,2.5,1.119,2.5,2.5v282.309C69.486,298.563,68.368,299.681,66.986,299.681 M31.717,294.681h32.771V17.373H31.717V294.681z"
	/>
<path fill="#231F20" d="M66.986,299.681h-37.77c-1.381,0-2.5-1.118-2.5-2.5v-15.979c0-1.381,1.119-2.5,2.5-2.5h37.77
	c1.382,0,2.5,1.119,2.5,2.5v15.979C69.486,298.563,68.368,299.681,66.986,299.681 M31.717,294.681h32.771v-10.979H31.717V294.681z"
	/>
<path fill="#231F20" d="M66.986,230.436h-37.77c-1.381,0-2.5-1.119-2.5-2.5v-66.824c0-1.381,1.119-2.5,2.5-2.5h37.77
	c1.382,0,2.5,1.119,2.5,2.5v66.824C69.486,229.317,68.368,230.436,66.986,230.436 M31.717,225.436h32.771v-61.823H31.717V225.436z"
	/>
<path fill="#231F20" d="M48.102,137.705c-6.185,0-11.215-5.031-11.215-11.216s5.03-11.216,11.215-11.216
	c6.186,0,11.217,5.031,11.217,11.216S54.287,137.705,48.102,137.705 M48.102,120.273c-3.428,0-6.215,2.788-6.215,6.216
	s2.787,6.216,6.215,6.216c3.429,0,6.217-2.788,6.217-6.216S51.53,120.273,48.102,120.273"/>
<path fill="#231F20" d="M52.097,105.695c0,2.206-1.788,3.994-3.995,3.994c-2.205,0-3.994-1.788-3.994-3.994
	c0-2.207,1.789-3.996,3.994-3.996C50.309,101.699,52.097,103.488,52.097,105.695"/>
<rect x="39.386" y="76.371" fill="#231F20" width="17.433" height="20.338"/>
<path fill="#231F20" d="M66.986,36.016h-37.77c-1.381,0-2.5-1.119-2.5-2.5V14.873c0-1.381,1.119-2.5,2.5-2.5h37.77
	c1.382,0,2.5,1.119,2.5,2.5v18.643C69.486,34.896,68.368,36.016,66.986,36.016 M31.717,31.016h32.771V17.373H31.717V31.016z"/>
<path fill="#231F20" d="M56.818,17.373H39.386c-1.381,0-2.5-1.119-2.5-2.5V5.55c0-1.381,1.119-2.5,2.5-2.5h17.433
	c1.381,0,2.5,1.119,2.5,2.5v9.322C59.318,16.253,58.199,17.373,56.818,17.373 M41.886,12.373h12.433V8.05H41.886V12.373z"/>
<path fill="#231F20" d="M66.986,54.659h-37.77c-1.381,0-2.5-1.119-2.5-2.5V33.516c0-1.381,1.119-2.5,2.5-2.5h37.77
	c1.382,0,2.5,1.119,2.5,2.5v18.643C69.486,53.54,68.368,54.659,66.986,54.659 M31.717,49.659h32.771V36.016H31.717V49.659z"/>
</svg>
