<?xml version="1.0" encoding="utf-8"?>
<!-- Generator: Adobe Illustrator 15.0.2, SVG Export Plug-In . SVG Version: 6.00 Build 0)  -->
<!DOCTYPE svg PUBLIC "-//W3C//DTD SVG 1.1//EN" "http://www.w3.org/Graphics/SVG/1.1/DTD/svg11.dtd">
<svg version="1.1" id="Слой_1" xmlns="http://www.w3.org/2000/svg" xmlns:xlink="http://www.w3.org/1999/xlink" x="0px" y="0px"
	 width="74px" height="233.333px" viewBox="0 0 74 233.333" enable-background="new 0 0 74 233.333" xml:space="preserve">
<path fill="#231F20" d="M67,211.685H10.348c-1.381,0-2.5-1.119-2.5-2.5V75.051c0-1.381,1.119-2.5,2.5-2.5H67
	c1.381,0,2.5,1.119,2.5,2.5v134.134C69.5,210.566,68.381,211.685,67,211.685 M12.848,206.685H64.5V77.551H12.848V206.685z"/>
<path fill="#231F20" d="M67,114.46H10.348c-1.381,0-2.5-1.119-2.5-2.5V75.051c0-1.381,1.119-2.5,2.5-2.5H67
	c1.381,0,2.5,1.119,2.5,2.5v36.909C69.5,113.341,68.381,114.46,67,114.46 M12.848,109.46H64.5V77.551H12.848V109.46z"/>
<path fill="#231F20" d="M67,211.685H10.348c-1.381,0-2.5-1.119-2.5-2.5v-36.909c0-1.381,1.119-2.5,2.5-2.5H67
	c1.381,0,2.5,1.119,2.5,2.5v36.909C69.5,210.566,68.381,211.685,67,211.685 M12.848,206.685H64.5v-31.908H12.848V206.685z"/>
<path fill="#231F20" d="M53.927,77.551H23.421c-1.381,0-2.5-1.119-2.5-2.5V18.484c0-7.168,5.832-12.999,13-12.999h9.506
	c7.168,0,13,5.831,13,12.999v56.567C56.427,76.432,55.308,77.551,53.927,77.551 M25.921,72.551h25.506V18.484
	c0-4.411-3.589-7.999-8-7.999h-9.506c-4.411,0-8,3.588-8,7.999V72.551z"/>
<path fill="#231F20" d="M44.836,226.681H32.511c-4.894,0-8.875-3.981-8.875-8.875v-8.621c0-1.381,1.119-2.5,2.5-2.5h25.075
	c1.381,0,2.5,1.119,2.5,2.5v8.621C53.711,222.7,49.729,226.681,44.836,226.681 M28.636,211.685v6.121
	c0,2.137,1.738,3.875,3.875,3.875h12.325c2.137,0,3.875-1.738,3.875-3.875v-6.121H28.636z"/>
</svg>
