<?xml version="1.0" encoding="utf-8"?>
<!-- Generator: Adobe Illustrator 15.0.2, SVG Export Plug-In . SVG Version: 6.00 Build 0)  -->
<!DOCTYPE svg PUBLIC "-//W3C//DTD SVG 1.1//EN" "http://www.w3.org/Graphics/SVG/1.1/DTD/svg11.dtd">
<svg version="1.1" id="Слой_1" xmlns="http://www.w3.org/2000/svg" xmlns:xlink="http://www.w3.org/1999/xlink" x="0px" y="0px"
	 width="140px" height="169.333px" viewBox="0 0 140 169.333" enable-background="new 0 0 140 169.333" xml:space="preserve">
<path fill="#231F20" d="M54.526,161.348H10.948c-1.381,0-2.5-1.118-2.5-2.5V24.715c0-1.381,1.119-2.5,2.5-2.5h43.578
	c1.381,0,2.5,1.119,2.5,2.5v134.133C57.026,160.23,55.907,161.348,54.526,161.348 M13.448,156.348h38.578V27.215H13.448V156.348z"/>
<path fill="#231F20" d="M54.526,64.125H10.948c-1.381,0-2.5-1.119-2.5-2.5V24.715c0-1.381,1.119-2.5,2.5-2.5h43.578
	c1.381,0,2.5,1.119,2.5,2.5v36.909C57.026,63.005,55.907,64.125,54.526,64.125 M13.448,59.125h38.578V27.215H13.448V59.125z"/>
<path fill="#231F20" d="M42.008,27.215H23.467c-1.381,0-2.5-1.119-2.5-2.5V8.842c0-1.381,1.119-2.5,2.5-2.5h18.541
	c1.381,0,2.5,1.119,2.5,2.5v15.873C44.508,26.096,43.389,27.215,42.008,27.215 M25.967,22.215h13.541V11.342H25.967V22.215z"/>
<path fill="#231F20" d="M32.737,52.502c-1.381,0-2.5-1.119-2.5-2.5V38.018c0-1.381,1.119-2.5,2.5-2.5s2.5,1.119,2.5,2.5v11.984
	C35.237,51.383,34.118,52.502,32.737,52.502"/>
<path fill="#231F20" d="M38.729,46.51H26.745c-1.381,0-2.5-1.119-2.5-2.5s1.119-2.5,2.5-2.5h11.984c1.381,0,2.5,1.119,2.5,2.5
	S40.11,46.51,38.729,46.51"/>
<path fill="#231F20" d="M42.008,145.476H23.467c-1.381,0-2.5-1.119-2.5-2.5s1.119-2.5,2.5-2.5h18.541c1.381,0,2.5,1.119,2.5,2.5
	S43.389,145.476,42.008,145.476"/>
<path fill="#231F20" d="M130.687,161.348h-43.58c-1.381,0-2.5-1.118-2.5-2.5V24.715c0-1.381,1.119-2.5,2.5-2.5h43.58
	c1.38,0,2.5,1.119,2.5,2.5v134.133C133.187,160.23,132.066,161.348,130.687,161.348 M89.606,156.348h38.578V27.215H89.606V156.348z"
	/>
<path fill="#231F20" d="M130.687,64.125h-43.58c-1.381,0-2.5-1.119-2.5-2.5V24.715c0-1.381,1.119-2.5,2.5-2.5h43.58
	c1.38,0,2.5,1.119,2.5,2.5v36.909C133.187,63.005,132.066,64.125,130.687,64.125 M89.606,59.125h38.578V27.215H89.606V59.125z"/>
<path fill="#231F20" d="M118.167,27.215H99.626c-1.381,0-2.5-1.119-2.5-2.5V8.842c0-1.381,1.119-2.5,2.5-2.5h18.541
	c1.381,0,2.5,1.119,2.5,2.5v15.873C120.667,26.096,119.548,27.215,118.167,27.215 M102.126,22.215h13.541V11.342h-13.541V22.215z"/>
<path fill="#231F20" d="M108.896,52.502c-1.381,0-2.5-1.119-2.5-2.5V38.018c0-1.381,1.119-2.5,2.5-2.5s2.5,1.119,2.5,2.5v11.984
	C111.396,51.383,110.277,52.502,108.896,52.502"/>
<path fill="#231F20" d="M114.889,46.51h-11.985c-1.381,0-2.5-1.119-2.5-2.5s1.119-2.5,2.5-2.5h11.985c1.381,0,2.5,1.119,2.5,2.5
	S116.27,46.51,114.889,46.51"/>
<path fill="#231F20" d="M118.167,145.476H99.626c-1.381,0-2.5-1.119-2.5-2.5s1.119-2.5,2.5-2.5h18.541c1.381,0,2.5,1.119,2.5,2.5
	S119.548,145.476,118.167,145.476"/>
</svg>
