<?xml version="1.0" encoding="utf-8"?>
<!-- Generator: Adobe Illustrator 15.0.2, SVG Export Plug-In . SVG Version: 6.00 Build 0)  -->
<!DOCTYPE svg PUBLIC "-//W3C//DTD SVG 1.1//EN" "http://www.w3.org/Graphics/SVG/1.1/DTD/svg11.dtd">
<svg version="1.1" id="Слой_1" xmlns="http://www.w3.org/2000/svg" xmlns:xlink="http://www.w3.org/1999/xlink" x="0px" y="0px"
	 width="184px" height="245.999px" viewBox="0 0 184 245.999" enable-background="new 0 0 184 245.999" xml:space="preserve">
<path fill="#231F20" d="M154.557,242.681H20.907c-1.381,0-2.5-1.118-2.5-2.5V19.37c0-1.381,1.119-2.5,2.5-2.5h133.649
	c1.381,0,2.5,1.119,2.5,2.5v220.811C157.057,241.563,155.938,242.681,154.557,242.681 M23.407,237.681h128.648V21.87H23.407V237.681
	z"/>
<path fill="#231F20" d="M102.259,21.87H35.435c-1.381,0-2.5-1.12-2.5-2.5V7.264c0-1.381,1.119-2.5,2.5-2.5h66.824
	c1.381,0,2.5,1.119,2.5,2.5V19.37C104.759,20.75,103.64,21.87,102.259,21.87 M37.935,16.87h61.824V9.765H37.935V16.87z"/>
<path fill="#231F20" d="M20.907,91.236H8.802c-1.381,0-2.5-1.119-2.5-2.5V45.882c0-1.381,1.119-2.5,2.5-2.5h12.105
	c1.381,0,2.5,1.119,2.5,2.5v42.854C23.407,90.117,22.288,91.236,20.907,91.236 M11.302,86.236h7.105V48.382h-7.105V86.236z"/>
<path fill="#231F20" d="M177.468,67.252h-12.106c-1.381,0-2.5-1.119-2.5-2.5V45.867c0-1.381,1.119-2.5,2.5-2.5h12.106
	c1.381,0,2.5,1.119,2.5,2.5v18.886C179.968,66.133,178.849,67.252,177.468,67.252 M167.861,62.252h7.105V48.367h-7.105V62.252z"/>
<path fill="#231F20" d="M60.514,187.963H49.578c-5.974,0-10.833-4.86-10.833-10.834v-62.748c0-5.974,4.859-10.833,10.833-10.833
	h10.936c5.974,0,10.833,4.859,10.833,10.833v62.748C71.347,183.103,66.487,187.963,60.514,187.963 M49.578,108.548
	c-3.217,0-5.833,2.616-5.833,5.833v62.748c0,3.217,2.616,5.834,5.833,5.834h10.936c3.217,0,5.833-2.617,5.833-5.834v-62.748
	c0-3.217-2.616-5.833-5.833-5.833H49.578z"/>
<rect x="38.34" y="213.226" fill="#231F20" width="49.393" height="10.223"/>
</svg>
