<?xml version="1.0" encoding="utf-8"?>
<!-- Generator: Adobe Illustrator 15.0.2, SVG Export Plug-In . SVG Version: 6.00 Build 0)  -->
<!DOCTYPE svg PUBLIC "-//W3C//DTD SVG 1.1//EN" "http://www.w3.org/Graphics/SVG/1.1/DTD/svg11.dtd">
<svg version="1.1" id="Capa_1" xmlns="http://www.w3.org/2000/svg" xmlns:xlink="http://www.w3.org/1999/xlink" x="0px" y="0px"
	 width="1920px" height="2280.912px" viewBox="0 1879.328 1920 2280.912" enable-background="new 0 1879.328 1920 2280.912"
	 xml:space="preserve">
<g>
	<path fill="#FFFFFF" d="M1647.302,3960H272.756c-7.971,0-15.593-3.258-21.062-9.019c-5.469-5.76-8.378-13.498-8.029-21.469
		l65.455-1374.545c0.756-15.535,13.498-27.695,29.091-27.695h1243.637c15.534,0,28.334,12.16,29.091,27.695l65.454,1374.545
		c0.35,7.971-2.502,15.709-8.029,21.469C1662.836,3956.742,1655.215,3960,1647.302,3960z M303.244,3901.818h1313.512
		l-62.661-1316.364H365.905L303.244,3901.818z"/>
	<path fill="#FFFFFF" d="M1274.473,2701.818c-16.058,0-29.091-13.033-29.091-29.091v-289.164c0-157.323-128-285.382-285.382-285.382
		s-285.382,128.059-285.382,285.382v289.164c0,16.058-13.032,29.091-29.091,29.091s-29.091-13.033-29.091-29.091v-289.164
		C616.437,2194.124,770.561,2040,960,2040c189.44,0,343.563,154.124,343.563,343.563v289.164
		C1303.563,2688.785,1290.589,2701.818,1274.473,2701.818z"/>
</g>
</svg>
