<?xml version="1.0" encoding="utf-8"?>
<!-- Generator: Adobe Illustrator 15.0.2, SVG Export Plug-In . SVG Version: 6.00 Build 0)  -->
<!DOCTYPE svg PUBLIC "-//W3C//DTD SVG 1.1//EN" "http://www.w3.org/Graphics/SVG/1.1/DTD/svg11.dtd">
<svg version="1.1" id="Capa_1" xmlns="http://www.w3.org/2000/svg" xmlns:xlink="http://www.w3.org/1999/xlink" x="0px" y="0px"
	 width="1920px" height="6000px" viewBox="0 0 1920 6000" enable-background="new 0 0 1920 6000" xml:space="preserve">
<path fill="#FFFFFF" d="M1874.253,3898.629l-538.634-560.166c137.387-137.785,222.5-327.733,222.5-537.22
	c0-419.771-341.472-761.243-761.242-761.243c-419.771,0-761.243,341.472-761.243,761.243s341.472,761.243,761.243,761.243
	c184.257,0,353.361-65.866,485.165-175.159l539.938,561.544c7.105,7.432,16.603,11.129,26.137,11.129
	c9.063,0,18.088-3.371,25.121-10.113C1887.665,3936.003,1888.101,3913.057,1874.253,3898.629z M796.877,3489.986
	c-379.788,0-688.744-308.955-688.744-688.743s308.956-688.744,688.744-688.744c379.787,0,688.743,308.956,688.743,688.744
	S1176.628,3489.986,796.877,3489.986z"/>
</svg>
